<svg xmlns="http://www.w3.org/2000/svg" xmlns:xlink="http://www.w3.org/1999/xlink" viewBox="0 0 154 164"><defs><style>.a{fill:url(#a);}.b{fill:url(#b);}.c{fill:url(#c);}.d{fill:url(#d);}.e{fill:url(#e);}.f{fill:url(#f);}.g{fill:url(#g);}.h{fill:url(#h);}.i{fill:url(#i);}.j{fill:url(#j);}.k{fill:url(#k);}.l{fill:url(#l);}.m{fill:url(#m);}.n{fill:url(#n);}.o{fill:url(#o);}.p{fill:url(#p);}.q{fill:url(#q);}.r{fill:url(#r);}.s{fill:url(#s);}.t{fill:url(#t);}.u{fill:url(#u);}.v{fill:url(#v);}.w{fill:#565c68;}.x{fill:url(#w);}.y{fill:url(#x);}.z{fill:url(#y);}.aa{fill:url(#z);}.ab{fill:url(#aa);}.ac{fill:url(#ab);}.ad{fill:url(#ac);}</style><linearGradient id="a" x1="76.36" y1="166.34" x2="76.36" y2="22.17" gradientUnits="userSpaceOnUse"><stop offset="0.01" stop-color="#1a2125"/><stop offset="0.24" stop-color="#1e252a"/><stop offset="0.42" stop-color="#494f59"/><stop offset="0.47" stop-color="#565c68"/><stop offset="0.64" stop-color="#8e9099"/><stop offset="0.79" stop-color="#b7b5bc"/><stop offset="0.87" stop-color="#c6c3c9"/></linearGradient><linearGradient id="b" x1="484.59" y1="-0.85" x2="419.63" y2="50.75" gradientTransform="matrix(-1, 0, 0, 1, 563.19, 0)" gradientUnits="userSpaceOnUse"><stop offset="0.25" stop-color="#1a2125"/><stop offset="0.57" stop-color="#424e5e"/><stop offset="0.76" stop-color="#475160"/><stop offset="0.87" stop-color="#505765"/><stop offset="1" stop-color="#565c68"/></linearGradient><linearGradient id="c" x1="75.4" y1="-0.85" x2="10.44" y2="50.75" gradientTransform="matrix(1, 0, 0, 1, 0, 0)" xlink:href="#b"/><linearGradient id="d" x1="320.94" y1="37.46" x2="379.46" y2="37.46" gradientTransform="matrix(-1, 0, 0, 1, 472.29, 0)" gradientUnits="userSpaceOnUse"><stop offset="0" stop-color="#c6c3c9"/><stop offset="0.15" stop-color="#93949d"/><stop offset="0.3" stop-color="#676c77"/><stop offset="0.38" stop-color="#565c68"/><stop offset="0.52" stop-color="#495361"/><stop offset="0.65" stop-color="#424e5e"/><stop offset="1" stop-color="#1a2125"/></linearGradient><linearGradient id="e" x1="2.5" y1="37.69" x2="61.02" y2="37.69" gradientTransform="matrix(1, 0, 0, 1, 0, 0)" xlink:href="#d"/><linearGradient id="f" x1="398.25" y1="36.91" x2="366.95" y2="36.91" gradientTransform="matrix(-1, 0, 0, 1, 488.41, 0)" gradientUnits="userSpaceOnUse"><stop offset="0.31" stop-color="#565c68"/><stop offset="0.36" stop-color="#5d626e"/><stop offset="0.43" stop-color="#70747e"/><stop offset="0.51" stop-color="#8f9099"/><stop offset="0.6" stop-color="#b9b7be"/><stop offset="0.63" stop-color="#c6c3c9"/><stop offset="0.99" stop-color="#c6c3c9"/><stop offset="1" stop-color="#c6c3c9"/></linearGradient><linearGradient id="g" x1="63.75" y1="36.91" x2="32.45" y2="36.91" gradientUnits="userSpaceOnUse"><stop offset="0.31" stop-color="#565c68"/><stop offset="0.37" stop-color="#5d626e"/><stop offset="0.46" stop-color="#70747e"/><stop offset="0.56" stop-color="#8f9099"/><stop offset="0.68" stop-color="#b9b7be"/><stop offset="0.71" stop-color="#c6c3c9"/><stop offset="1" stop-color="#c6c3c9"/><stop offset="1" stop-color="#c6c3c9"/></linearGradient><linearGradient id="h" x1="77" y1="5.05" x2="77" y2="79.42" gradientUnits="userSpaceOnUse"><stop offset="0" stop-color="#1a2125"/><stop offset="0" stop-color="#1a2126"/><stop offset="0.05" stop-color="#2c353e"/><stop offset="0.09" stop-color="#384350"/><stop offset="0.14" stop-color="#404b5b"/><stop offset="0.2" stop-color="#424e5e"/><stop offset="0.41" stop-color="#455060"/><stop offset="0.58" stop-color="#4f5765"/><stop offset="0.65" stop-color="#565c68"/><stop offset="0.7" stop-color="#565c68"/><stop offset="1" stop-color="#565c68"/></linearGradient><linearGradient id="i" x1="118.44" y1="75.63" x2="127.34" y2="75.63" gradientUnits="userSpaceOnUse"><stop offset="0.27" stop-color="#181119"/><stop offset="0.5" stop-color="#19151c"/><stop offset="0.74" stop-color="#1a2125"/><stop offset="0.82" stop-color="#2b343d"/><stop offset="0.93" stop-color="#3c4755"/><stop offset="1" stop-color="#424e5e"/></linearGradient><linearGradient id="j" x1="435.96" y1="-13.02" x2="467.95" y2="-13.02" gradientTransform="translate(132.77 545.82) rotate(-90)" gradientUnits="userSpaceOnUse"><stop offset="0.18" stop-color="#1a2125"/><stop offset="0.32" stop-color="#21292f"/><stop offset="0.56" stop-color="#343e4a"/><stop offset="0.7" stop-color="#424e5e"/><stop offset="0.9" stop-color="#4e5664"/><stop offset="1" stop-color="#565c68"/></linearGradient><linearGradient id="k" x1="127.12" y1="84.79" x2="109.99" y2="84.65" gradientUnits="userSpaceOnUse"><stop offset="0" stop-color="#424e5e"/><stop offset="0.03" stop-color="#3f4b5a"/><stop offset="0.23" stop-color="#2f3943"/><stop offset="0.45" stop-color="#232b32"/><stop offset="0.7" stop-color="#1c2328"/><stop offset="1" stop-color="#1a2125"/></linearGradient><linearGradient id="l" x1="406.21" y1="75.76" x2="411.19" y2="75.76" gradientTransform="matrix(-1, 0, 0, 1, 435.13, 0)" xlink:href="#i"/><linearGradient id="m" x1="434.13" y1="269.38" x2="467.21" y2="269.38" gradientTransform="matrix(0, -1, -1, 0, 302.36, 545.82)" xlink:href="#j"/><linearGradient id="n" x1="409.26" y1="86.97" x2="391.55" y2="86.83" gradientTransform="matrix(-1, 0, 0, 1, 435.13, 0)" xlink:href="#k"/><linearGradient id="o" x1="453.44" y1="149.12" x2="453.44" y2="121.09" gradientTransform="translate(-119.16 554.3) rotate(-90)" gradientUnits="userSpaceOnUse"><stop offset="0.01" stop-color="#1a2125"/><stop offset="0.21" stop-color="#1e252a"/><stop offset="0.34" stop-color="#494f59"/><stop offset="0.38" stop-color="#565c68"/><stop offset="0.45" stop-color="#6c717b"/><stop offset="0.68" stop-color="#adacb3"/><stop offset="0.78" stop-color="#c6c3c9"/></linearGradient><linearGradient id="p" x1="32.69" y1="102.59" x2="119.57" y2="102.59" gradientUnits="userSpaceOnUse"><stop offset="0.03" stop-color="#2c5947"/><stop offset="0.09" stop-color="#387a5b"/><stop offset="0.16" stop-color="#44996d"/><stop offset="0.23" stop-color="#4db17b"/><stop offset="0.3" stop-color="#53c285"/><stop offset="0.38" stop-color="#57cc8b"/><stop offset="0.48" stop-color="#58cf8d"/><stop offset="0.78" stop-color="#2c5947"/><stop offset="1" stop-color="#424e5e"/></linearGradient><linearGradient id="q" x1="76.13" y1="45.18" x2="76.13" y2="159.66" gradientUnits="userSpaceOnUse"><stop offset="0" stop-color="#58cf8d"/><stop offset="1" stop-color="#2c5947"/></linearGradient><linearGradient id="r" x1="78.36" y1="55.42" x2="78.36" y2="100.73" gradientUnits="userSpaceOnUse"><stop offset="0" stop-color="#58cf8d"/><stop offset="0.21" stop-color="#2c5947"/><stop offset="0.37" stop-color="#424e5e"/><stop offset="0.56" stop-color="#2c5947"/><stop offset="0.6" stop-color="#346e53"/><stop offset="0.68" stop-color="#419168"/><stop offset="0.76" stop-color="#4bac78"/><stop offset="0.84" stop-color="#52c084"/><stop offset="0.92" stop-color="#57cb8b"/><stop offset="1" stop-color="#58cf8d"/></linearGradient><linearGradient id="s" x1="78.36" y1="99.22" x2="78.36" y2="56.93" gradientUnits="userSpaceOnUse"><stop offset="0" stop-color="#58cf8d"/><stop offset="0.19" stop-color="#57cb8b"/><stop offset="0.37" stop-color="#52c084"/><stop offset="0.55" stop-color="#4bac78"/><stop offset="0.73" stop-color="#419168"/><stop offset="0.91" stop-color="#346e53"/><stop offset="1" stop-color="#2c5947"/></linearGradient><radialGradient id="t" cx="78.87" cy="77.68" r="19.04" gradientTransform="translate(0 0) scale(0.99 1.01)" gradientUnits="userSpaceOnUse"><stop offset="0.64" stop-color="#fff"/><stop offset="0.78" stop-color="#fdfdfd"/><stop offset="0.85" stop-color="#f5f5f6"/><stop offset="0.91" stop-color="#e8e7e9"/><stop offset="0.97" stop-color="#d6d4d8"/><stop offset="1" stop-color="#c6c3c9"/></radialGradient><linearGradient id="u" x1="77.48" y1="16.09" x2="77.48" y2="45.01" gradientUnits="userSpaceOnUse"><stop offset="0" stop-color="#424e5e"/><stop offset="0.07" stop-color="#4b5463"/><stop offset="0.17" stop-color="#565c68"/><stop offset="0.41" stop-color="#1a2125"/><stop offset="0.61" stop-color="#191a20"/><stop offset="1" stop-color="#181119"/></linearGradient><linearGradient id="v" x1="77.48" y1="17.73" x2="77.48" y2="45.4" gradientUnits="userSpaceOnUse"><stop offset="0.08" stop-color="#424e5e"/><stop offset="0.22" stop-color="#36404d"/><stop offset="0.49" stop-color="#222a30"/><stop offset="0.65" stop-color="#1a2125"/><stop offset="0.82" stop-color="#19151c"/><stop offset="1" stop-color="#181119"/></linearGradient><linearGradient id="w" x1="55.5" y1="34.78" x2="55.5" y2="19.51" gradientUnits="userSpaceOnUse"><stop offset="0" stop-color="#181119"/><stop offset="0.65" stop-color="#1a2125"/></linearGradient><linearGradient id="x" x1="55.5" y1="34.13" x2="55.5" y2="20.39" gradientUnits="userSpaceOnUse"><stop offset="0.35" stop-color="#1a2125"/><stop offset="1" stop-color="#181119"/></linearGradient><linearGradient id="y" x1="93.83" y1="28.31" x2="104.78" y2="28.31" xlink:href="#w"/><linearGradient id="z" x1="94.32" y1="28.31" x2="104.28" y2="28.31" xlink:href="#x"/><linearGradient id="aa" x1="454.91" y1="431.72" x2="454.91" y2="403.7" gradientTransform="matrix(0, -1, -1, 0, 554.3, 554.3)" gradientUnits="userSpaceOnUse"><stop offset="0.01" stop-color="#1a2125"/><stop offset="0.13" stop-color="#1e252a"/><stop offset="0.39" stop-color="#494f59"/><stop offset="0.47" stop-color="#565c68"/><stop offset="0.64" stop-color="#8e9099"/><stop offset="0.79" stop-color="#b7b5bc"/><stop offset="0.87" stop-color="#c6c3c9"/></linearGradient><linearGradient id="ab" x1="112.4" y1="77.45" x2="125.09" y2="77.45" gradientUnits="userSpaceOnUse"><stop offset="0.54" stop-color="#181119"/><stop offset="0.56" stop-color="#18121a"/><stop offset="0.73" stop-color="#1a2125"/><stop offset="0.85" stop-color="#2a333c"/><stop offset="1" stop-color="#424e5e"/></linearGradient><linearGradient id="ac" x1="396.7" y1="76.99" x2="408.15" y2="76.99" gradientTransform="matrix(-1, 0, 0, 1, 435.13, 0)" xlink:href="#ab"/></defs><title>koala-logo</title><path class="a" d="M117.43,121.45c-1.29,0-4.24-.22-4.24-0.85a1.63,1.63,0,0,1,1.13-1.28c1.27,0,4.67-3.37,2.44-3.37-0.73,0-.73-0.08-0.73-0.75s3.13-13.62,3.13-19.28c0-31.45-18.67-58.88-41.93-59.78-0.19,0-.37,0-0.57,0H76.05c-0.19,0-.38,0-0.57,0C52.22,37,33.55,64.46,33.55,95.92c0,5.66,3.13,18.6,3.13,19.28s0,0.75-.73.75c-2.23,0,1.17,3.37,2.44,3.37a1.63,1.63,0,0,1,1.13,1.28c0,0.63-2.95.85-4.24,0.85-0.89,0,1.05,2,2.35,2,2.81,0,3.33,1.29.17,1.29-3.92,0,.12,3.33,3.29,3.33a8.66,8.66,0,0,1,1.64.18s-0.27,1.17-3.34,1.17,2.3,3.36,4.74,3.36c0.34,0,2,.27,2,0.27s-0.38,1.62-1.17,1.62c-2.32,0,1.3,3.66,4.77,3.66,1.33,0,6.67,12.59,26.34,12.59s25.34-12.59,26.82-12.59c3.47,0,7.09-3.66,4.77-3.66-0.79,0-1.17-1.62-1.17-1.62s1.7-.27,2-0.27c2.44,0,7.81-3.36,4.74-3.36s-3.34-1.17-3.34-1.17a8.66,8.66,0,0,1,1.64-.18c3.17,0,7.21-3.33,3.29-3.33-3.16,0-2.63-1.29.17-1.29C116.38,123.44,118.32,121.45,117.43,121.45Z" transform="translate(0 0)"/><path class="b" d="M99.81,7.2c0.27,0,17.86-.1,17.86-5.47S122.72,5,122.72,7.4a13.81,13.81,0,0,1-.27,3.25c2.5-.39,4.19-1.32,4.19-3.33,0-5.19,4.66,2.73,5,5.46,2.28,0.11,3.1-.08,3.1-1.84,0-3.17,8.93,7.11,8.93,3.37,0-2.66,4,1.5,6.27,4.62,2.58,1.31,4.09,2.64,4.09,3.93,0,8.06-12.1,22.82-18.15,22.82s-14.08,12.08-31.5,12.08L77,5.24A219.24,219.24,0,0,1,99.81,7.2Z" transform="translate(0 0)"/><path class="c" d="M54.19,7.2c-0.27,0-17.86-.1-17.86-5.47S31.28,5,31.28,7.4a13.81,13.81,0,0,0,.27,3.25c-2.5-.39-4.19-1.32-4.19-3.33,0-5.19-4.66,2.73-5,5.46-2.28.11-3.1-.08-3.1-1.84,0-3.17-8.93,7.11-8.93,3.37,0-2.66-4,1.5-6.27,4.62C1.51,20.25,0,21.57,0,22.86c0,8.06,12.1,22.82,18.15,22.82s14.08,12.08,31.5,12.08L77,5.24A219.24,219.24,0,0,0,54.19,7.2Z" transform="translate(0 0)"/><path class="d" d="M122.84,23.23c-10.61,0-30-8.86-30,5.39s-1.64,25.95,18.52,25.95c8,0,18.53-10.86,24.75-10.86s15.22-15.57,15.22-20C151.35,16.46,133.45,23.23,122.84,23.23Z" transform="translate(0 0)"/><path class="e" d="M31,23.45c10.61,0,30-8.86,30,5.39s1.64,25.95-18.52,25.95c-8,0-18.53-10.86-24.75-10.86S2.5,28.35,2.5,24C2.5,16.68,20.4,23.45,31,23.45Z" transform="translate(0 0)"/><path class="f" d="M93.83,28.49c23,0,27.39-8.62,27.39-2.78a10.45,10.45,0,0,1-1.14,3c1.76,0,5.74-2.51,5.74.57,0,2-3.35,6-3.35,6,2.73,0,7.36-3.64,7.36,0a10.45,10.45,0,0,1-1.14,3c1.76,0,5.74-2.51,5.74.57s-4.72,7.78-8.82,7.78c0,0,3.11,3.45-.45,3.45-4.72,0-8.68-1.78-14.67-1.78Z" transform="translate(0 0)"/><path class="g" d="M60.08,28.49c-23,0-27.39-8.62-27.39-2.78a10.45,10.45,0,0,0,1.14,3c-1.76,0-5.74-2.51-5.74.57,0,2,3.35,6,3.35,6-2.73,0-7.36-3.64-7.36,0a10.45,10.45,0,0,0,1.14,3c-1.76,0-5.74-2.51-5.74.57s4.72,7.78,8.82,7.78c0,0-3.11,3.45.45,3.45,4.72,0,8.68-1.78,14.67-1.78Z" transform="translate(0 0)"/><path class="h" d="M121.3,43.92c0,20.68-20.7,35.5-45.17,35.5S32.7,59.46,32.7,43.26s19.83-38,44.3-38S121.3,23.24,121.3,43.92Z" transform="translate(0 0)"/><path class="i" d="M129.87,82c0-8.67-11-15.78-12.31-15.78s4.55,4.64,4.55,6.91-0.44,10.68,1.68,10.68S129.87,87.59,129.87,82Z" transform="translate(0 0)"/><path class="j" d="M108.11,90.4c0-9.25,3.75-12.54,10.23-12.54s13.05,1.51,13.05,11.6-1.86,12.56-1.86,14.45c0,4.19-3.46,6-9.07,6S108.11,101.64,108.11,90.4Z" transform="translate(0 0)"/><path class="k" d="M127.82,81.39c0,5.22-5.36,9-11,9s-5.06-9-5.06-9S127.82,76.17,127.82,81.39Z" transform="translate(0 0)"/><path class="l" d="M22.52,82.88c0-9,5.31-17.41,6.7-17.41S27,70.72,27,73.06s4,11.68,1.8,11.68S22.52,88.67,22.52,82.88Z" transform="translate(0 0)"/><path class="m" d="M45,91.57c0-9.56-3.88-13-10.57-13s-13.49,1.56-13.49,12,1.92,13,1.92,14.93c0,4.33,3.58,6.16,9.38,6.16S45,103.19,45,91.57Z" transform="translate(0 0)"/><path class="n" d="M25.16,85c0,3,5.54,5.22,11.38,5.22S41.77,85,41.77,85,25.16,81.95,25.16,85Z" transform="translate(0 0)"/><path class="o" d="M7.42,96.86c-7.56,0,2.06,9.71,7.61,9.71a10.49,10.49,0,0,0,5.83-2.15,10,10,0,0,1-7.28,3.51c-6.31,0,13.37,7,13.37,0a44.64,44.64,0,0,0-1-9.17,8,8,0,0,0,1-3.6c0-4.51-5.51-4.51-5.51-4.51C21.44,94.76,15,96.86,7.42,96.86Z" transform="translate(0 0)"/><path class="p" d="M77.84,41.33C161.68,36.12,96.51,164,77,164S-12.58,46.95,77.84,41.33Z" transform="translate(0 0)"/><path class="q" d="M77.74,45c78.78-4.9,17.54,115.26-.79,115.26S-7.23,50.31,77.74,45Z" transform="translate(0 0)"/><ellipse class="r" cx="78.36" cy="78.08" rx="22.4" ry="22.66"/><ellipse class="s" cx="78.36" cy="78.08" rx="20.9" ry="21.15"/><ellipse class="t" cx="78.36" cy="78.08" rx="18.91" ry="19.13"/><path class="u" d="M77.93,16.29c7.7,0,11,5.56,11,11.21s-2,6.4-2,10.35c0,2.89-8.51,7.37-10.12,7.37s-7.51-3.77-7.51-6.14c0-4-3.3-1.33-3.3-11.19S70.22,16.29,77.93,16.29Z" transform="translate(0 0)"/><path class="v" d="M77.87,17.92c6.7,0,9.57,5.32,9.57,10.72s-1.71,6.13-1.71,9.9c0,2.77-7.4,7-8.8,7S70.4,42,70.4,39.72c0-3.86-2.87-1.28-2.87-10.7S71.17,17.92,77.87,17.92Z" transform="translate(0 0)"/><path class="w" d="M58.41,20.13c6.43,0,3.72,17.21-4.57,17.21S48.55,20.13,58.41,20.13Z" transform="translate(0 0)"/><path class="x" d="M57.74,21.69c4.94,0,2.86,13.24-3.51,13.24S50.16,21.69,57.74,21.69Z" transform="translate(0 0)"/><path class="y" d="M57.51,22.35c4.45,0,2.57,11.91-3.16,11.91S50.69,22.35,57.51,22.35Z" transform="translate(0 0)"/><path class="w" d="M96.4,20.13c-6.43,0-3.72,17.21,4.57,17.21S106.25,20.13,96.4,20.13Z" transform="translate(0 0)"/><path class="z" d="M96.84,21c-5.44,0-3.15,14.56,3.86,14.56S105.18,21,96.84,21Z" transform="translate(0 0)"/><path class="aa" d="M97.07,21.69c-4.94,0-2.86,13.24,3.51,13.24S104.65,21.69,97.07,21.69Z" transform="translate(0 0)"/><path class="ab" d="M145.33,97.12c7.32,0-2.85,7.8-8.22,7.8a10.15,10.15,0,0,1-5.64-2.08,9.65,9.65,0,0,0,7,3.4c6.11,0-12.93,6.82-12.93,0a43.18,43.18,0,0,1,1-8.87,7.76,7.76,0,0,1-1-3.48c0-4.36,5.33-4.36,5.33-4.36C130.91,93.48,138,97.12,145.33,97.12Z" transform="translate(0 0)"/><path class="ac" d="M128.7,84.08c0-10.76-12.53-16.41-16.89-16.41s7.45,4.59,7.45,7.41,0.11,9.19,2.75,9.19S128.7,91,128.7,84.08Z" transform="translate(0 0)"/><path class="ad" d="M23.72,85c0-11.12,10.41-19.57,14.92-19.57s-5.16,6.23-5.16,9.14S34.5,86,31.78,86,23.72,92.22,23.72,85Z" transform="translate(0 0)"/></svg>